# xmcd
#
# Track frame offsets:
#  150
#  19140
#  31895
#  52550
#  66342
#  81765
#  96770
#  110740
#  129252
#  144357
#  159010
#  178000
#  190755
#  211410
#  225205
#  240625
#  255627
#  269597
#  288107
#  303215
#
# Disc length: 4238 seconds
#
# Revision: 1
# Processed by: cddbd v1.5.1PL2 Copyright (c) Steve Scherf et al.
# Submitted via: Collectorz.com_Music_Collector 6.11
#
DISCID=fe108c14
DTITLE=Various (First name - Surname) - THM-C0504-April 2005
DYEAR=2005
DGENRE=Country - Karaoke
TTITLE0=Kenny Chesney - Anything But Mine
TTITLE1=Blue County - Nothin' But Cowboy Boots
TTITLE2=Sara Evans - Tonight
TTITLE3=Pat Green - Somewhere Between Texas And Mexico
TTITLE4=Trace Adkins - Songs About Me
TTITLE5=Jo Dee Messina - My Give A Damns Busted
TTITLE6=Keith Anderson - Pickin' Wildflowers
TTITLE7=Lonestar - Class Reunion (That Use To Be Us)
TTITLE8=Buddy Jewell - If She Were Any Other Woman
TTITLE9=Jimmy Buffett - Piece Of Work
TTITLE10=Kenny Chesney - Anything But Mine
TTITLE11=Blue County - Nothin' But Cowboy Boots
TTITLE12=Sara Evans - Tonight
TTITLE13=Pat Green - Somewhere Between Texas And Mexico
TTITLE14=Trace Adkins - Songs About Me
TTITLE15=Jo Dee Messina - My Give A Damns Busted
TTITLE16=Keith Anderson - Pickin' Wildflowers
TTITLE17=Lonestar - Class Reunion (That Use To Be Us)
TTITLE18=Buddy Jewell - If She Were Any Other Woman
TTITLE19=Jimmy Buffett - Piece Of Work
EXTD=
EXTT0=
EXTT1=
EXTT2=
EXTT3=
EXTT4=
EXTT5=
EXTT6=
EXTT7=
EXTT8=
EXTT9=
EXTT10=
EXTT11=
EXTT12=
EXTT13=
EXTT14=
EXTT15=
EXTT16=
EXTT17=
EXTT18=
EXTT19=
PLAYORDER=
